<svg width="37" height="38" viewBox="0 0 37 38" fill="none" xmlns="http://www.w3.org/2000/svg">
<rect x="0.242676" y="0.796143" width="36.4078" height="36.4078" rx="18.2039" fill="#8D75F5"/>
<path d="M27.3192 20.6298C27.3192 21.9178 27.0614 23.0261 26.5734 23.8354C25.947 24.8748 24.9733 25.4248 23.7579 25.4248C21.4381 25.4248 19.8785 22.5144 18.2279 19.4335C17.0286 17.1955 15.5402 14.4106 14.3164 14.4106C13.7267 14.4106 13.0039 15.1273 12.4302 16.2807C11.7741 17.6376 11.4257 19.1227 11.4099 20.6298C11.4099 21.5706 11.5812 22.3722 11.8918 22.8877C12.1801 23.3665 12.5756 23.5891 13.1354 23.5891C14.1871 23.5891 15.4782 21.3709 15.9027 20.6451C16.0254 20.4347 16.2265 20.2817 16.462 20.2197C16.6975 20.1576 16.9479 20.1917 17.1583 20.3143C17.3686 20.4369 17.5217 20.6381 17.5837 20.8735C17.6457 21.109 17.6117 21.3594 17.4891 21.5698C16.8076 22.7385 16.2248 23.5585 15.6534 24.1535C14.8327 25.0087 14.0105 25.4248 13.1354 25.4248C11.9201 25.4248 10.9464 24.8748 10.32 23.8354C9.83198 23.0261 9.57422 21.9178 9.57422 20.6298C9.57422 17.2667 11.3778 12.575 14.3164 12.575C16.6363 12.575 18.1958 15.4853 19.8464 18.5662C21.0473 20.8042 22.5365 23.5891 23.7579 23.5891C24.3178 23.5891 24.7133 23.3665 25.0016 22.8877C25.3122 22.3722 25.4835 21.5706 25.4835 20.6298C25.468 19.1227 25.1198 17.6377 24.4639 16.2807C23.8903 15.1273 23.1675 14.4106 22.577 14.4106C22.1395 14.4106 21.6125 14.7931 21.0098 15.5449C20.8576 15.735 20.6362 15.8569 20.3942 15.8837C20.1522 15.9105 19.9095 15.8401 19.7194 15.688C19.5294 15.5358 19.4075 15.3144 19.3807 15.0724C19.3539 14.8304 19.4243 14.5877 19.5764 14.3976C20.5593 13.1715 21.5406 12.575 22.577 12.575C23.927 12.575 25.1775 13.6006 26.1069 15.4631C26.8864 17.0751 27.3004 18.8393 27.3192 20.6298Z" fill="white"/>
</svg>
