<svg width="79" height="21" viewBox="0 0 79 21" fill="none" xmlns="http://www.w3.org/2000/svg">
<path d="M13.0391 20.3222V0.824678H16.0473V20.3222H13.0391ZM0.310059 20.3222V0.824678H3.31825V20.3222H0.310059ZM1.61918 12.0497V9.1529H14.3761V12.0497H1.61918Z" fill="#16151C"/>
<path d="M21.4995 20.3222V0.824678H29.7998C30.914 0.824678 31.9353 1.10321 32.8637 1.66029C33.8107 2.19879 34.5628 2.94155 35.1199 3.88857C35.6769 4.81702 35.9555 5.86618 35.9555 7.03603C35.9555 8.09446 35.6769 9.07862 35.1199 9.98851C34.5628 10.8984 33.82 11.6319 32.8916 12.1889C31.9631 12.7274 30.9325 12.9967 29.7998 12.9967H24.5076V20.3222H21.4995ZM33.0865 20.3222L28.1286 11.5205L31.2204 10.8241L36.7354 20.35L33.0865 20.3222ZM24.5076 10.0999H30.0784C30.6169 10.0999 31.0997 9.96994 31.5267 9.70997C31.9538 9.43143 32.2881 9.06005 32.5295 8.59583C32.7709 8.11303 32.8916 7.58381 32.8916 7.00817C32.8916 6.35826 32.7337 5.7919 32.4181 5.3091C32.1209 4.80774 31.6939 4.41779 31.1368 4.13925C30.5983 3.86072 29.9855 3.72145 29.2985 3.72145H24.5076V10.0999Z" fill="#16151C"/>
<path d="M40.8664 20.3222V0.824678H43.8189L50.9215 12.3839L49.501 12.3561L56.6872 0.824678H59.4726V20.3222H56.4644V12.3282C56.4644 10.657 56.5015 9.1529 56.5758 7.81593C56.6687 6.47896 56.8172 5.15127 57.0215 3.83287L57.4114 4.86345L51.0329 14.7236H49.1946L43.0111 4.97486L43.3175 3.83287C43.5218 5.07699 43.661 6.35826 43.7353 7.67666C43.8282 8.97649 43.8746 10.527 43.8746 12.3282V20.3222H40.8664Z" fill="#16151C"/>
<path d="M70.9554 20.6007C69.897 20.6007 68.9128 20.4615 68.003 20.1829C67.1116 19.9044 66.2946 19.4866 65.5518 18.9295C64.8277 18.3539 64.1777 17.6482 63.6021 16.8126L65.6633 14.4451C66.5731 15.7449 67.4459 16.6455 68.2815 17.1469C69.1171 17.6482 70.1105 17.8989 71.2618 17.8989C71.9675 17.8989 72.6081 17.7875 73.1837 17.5647C73.7594 17.3419 74.2143 17.0355 74.5485 16.6455C74.8828 16.2556 75.0499 15.8099 75.0499 15.3085C75.0499 14.9743 74.9942 14.6586 74.8828 14.3615C74.7714 14.0644 74.595 13.7952 74.3536 13.5538C74.1308 13.3124 73.8336 13.0895 73.4623 12.8853C73.1095 12.681 72.6916 12.5046 72.2088 12.3561C71.7261 12.1889 71.169 12.0497 70.5376 11.9383C69.5349 11.734 68.6622 11.4647 67.9194 11.1305C67.1766 10.7963 66.5546 10.3785 66.0532 9.87709C65.5518 9.37573 65.1805 8.80937 64.9391 8.17802C64.6977 7.52811 64.577 6.80391 64.577 6.00544C64.577 5.22554 64.7441 4.50135 65.0783 3.83287C65.4311 3.16438 65.9047 2.58874 66.4989 2.10594C67.1116 1.60458 67.8266 1.22391 68.6436 0.963946C69.4606 0.68541 70.3427 0.546143 71.2897 0.546143C72.2924 0.546143 73.2116 0.676126 74.0472 0.936093C74.8828 1.19606 75.6256 1.58601 76.2755 2.10594C76.9254 2.60731 77.4639 3.22937 77.891 3.97213L75.7741 6.06115C75.4027 5.44837 74.9849 4.93772 74.5207 4.5292C74.0565 4.10212 73.5458 3.78644 72.9888 3.58218C72.4317 3.35935 71.8375 3.24794 71.2061 3.24794C70.4819 3.24794 69.8506 3.35935 69.3121 3.58218C68.7736 3.80501 68.3465 4.12068 68.0308 4.5292C67.7337 4.91915 67.5852 5.38338 67.5852 5.92188C67.5852 6.31183 67.6594 6.67393 67.808 7.00817C67.9565 7.32385 68.1794 7.61167 68.4765 7.87163C68.7921 8.11303 69.2099 8.33586 69.7299 8.54012C70.2498 8.72581 70.8719 8.89293 71.5961 9.04148C72.6174 9.26431 73.5273 9.55213 74.3257 9.90495C75.1242 10.2392 75.802 10.6384 76.359 11.1026C76.9161 11.5669 77.3339 12.0868 77.6124 12.6624C77.9096 13.2381 78.0581 13.8602 78.0581 14.5286C78.0581 15.7728 77.7703 16.8498 77.1946 17.7597C76.619 18.6695 75.802 19.3752 74.7435 19.8765C73.6851 20.3593 72.4224 20.6007 70.9554 20.6007Z" fill="#16151C"/>
</svg>
