<svg width="79" height="21" viewBox="0 0 79 21" fill="none" xmlns="http://www.w3.org/2000/svg">
<path d="M13.0393 20.3222V0.824678H16.0475V20.3222H13.0393ZM0.310181 20.3222V0.824678H3.31837V20.3222H0.310181ZM1.6193 12.0497V9.1529H14.3762V12.0497H1.6193Z" fill="#16151C"/>
<path d="M21.4996 20.3222V0.824678H29.7999C30.9141 0.824678 31.9354 1.10321 32.8638 1.66029C33.8109 2.19879 34.5629 2.94155 35.12 3.88857C35.677 4.81702 35.9556 5.86618 35.9556 7.03603C35.9556 8.09446 35.677 9.07862 35.12 9.98851C34.5629 10.8984 33.8201 11.6319 32.8917 12.1889C31.9632 12.7274 30.9327 12.9967 29.7999 12.9967H24.5078V20.3222H21.4996ZM33.0867 20.3222L28.1287 11.5205L31.2205 10.8241L36.7355 20.35L33.0867 20.3222ZM24.5078 10.0999H30.0785C30.617 10.0999 31.0998 9.96994 31.5269 9.70997C31.9539 9.43143 32.2882 9.06005 32.5296 8.59583C32.771 8.11303 32.8917 7.58381 32.8917 7.00817C32.8917 6.35826 32.7338 5.7919 32.4182 5.30911C32.1211 4.80774 31.694 4.41779 31.1369 4.13925C30.5984 3.86072 29.9856 3.72145 29.2986 3.72145H24.5078V10.0999Z" fill="#16151C"/>
<path d="M40.8665 20.3222V0.824678H43.819L50.9217 12.3839L49.5011 12.3561L56.6873 0.824678H59.4727V20.3222H56.4645V12.3282C56.4645 10.657 56.5017 9.1529 56.5759 7.81593C56.6688 6.47896 56.8173 5.15127 57.0216 3.83287L57.4115 4.86345L51.0331 14.7236H49.1947L43.0112 4.97486L43.3176 3.83287C43.5219 5.07699 43.6612 6.35826 43.7354 7.67666C43.8283 8.97649 43.8747 10.527 43.8747 12.3282V20.3222H40.8665Z" fill="#16151C"/>
<path d="M70.9556 20.6007C69.8971 20.6007 68.913 20.4615 68.0031 20.1829C67.1118 19.9044 66.2947 19.4866 65.552 18.9295C64.8278 18.3539 64.1779 17.6482 63.6022 16.8126L65.6634 14.4451C66.5733 15.7449 67.446 16.6455 68.2816 17.1469C69.1172 17.6482 70.1107 17.8989 71.2619 17.8989C71.9676 17.8989 72.6082 17.7875 73.1838 17.5647C73.7595 17.3419 74.2144 17.0355 74.5487 16.6455C74.8829 16.2556 75.05 15.8099 75.05 15.3085C75.05 14.9743 74.9943 14.6586 74.8829 14.3615C74.7715 14.0644 74.5951 13.7952 74.3537 13.5538C74.1309 13.3124 73.8338 13.0895 73.4624 12.8853C73.1096 12.681 72.6918 12.5046 72.209 12.3561C71.7262 12.1889 71.1691 12.0497 70.5378 11.9383C69.535 11.734 68.6623 11.4647 67.9195 11.1305C67.1768 10.7963 66.5547 10.3785 66.0533 9.87709C65.552 9.37573 65.1806 8.80937 64.9392 8.17802C64.6978 7.52811 64.5771 6.80391 64.5771 6.00544C64.5771 5.22554 64.7442 4.50135 65.0785 3.83287C65.4313 3.16438 65.9048 2.58874 66.499 2.10594C67.1118 1.60458 67.8267 1.22391 68.6437 0.963946C69.4608 0.68541 70.3428 0.546143 71.2898 0.546143C72.2925 0.546143 73.2117 0.676126 74.0473 0.936093C74.8829 1.19606 75.6257 1.58601 76.2756 2.10594C76.9255 2.60731 77.464 3.22937 77.8911 3.97213L75.7742 6.06115C75.4029 5.44837 74.9851 4.93772 74.5208 4.5292C74.0566 4.10212 73.5459 3.78644 72.9889 3.58218C72.4318 3.35935 71.8376 3.24794 71.2062 3.24794C70.482 3.24794 69.8507 3.35935 69.3122 3.58218C68.7737 3.80501 68.3466 4.12068 68.0309 4.5292C67.7338 4.91915 67.5853 5.38338 67.5853 5.92188C67.5853 6.31183 67.6596 6.67393 67.8081 7.00817C67.9567 7.32385 68.1795 7.61167 68.4766 7.87163C68.7923 8.11303 69.2101 8.33586 69.73 8.54012C70.2499 8.72581 70.872 8.89293 71.5962 9.04148C72.6175 9.26431 73.5274 9.55213 74.3258 9.90495C75.1243 10.2392 75.8021 10.6384 76.3592 11.1026C76.9162 11.5669 77.334 12.0868 77.6126 12.6625C77.9097 13.2381 78.0582 13.8602 78.0582 14.5286C78.0582 15.7728 77.7704 16.8498 77.1948 17.7597C76.6191 18.6695 75.8021 19.3752 74.7436 19.8765C73.6852 20.3593 72.4225 20.6007 70.9556 20.6007Z" fill="#16151C"/>
</svg>
