<svg width="24" height="25" viewBox="0 0 24 25" fill="none" xmlns="http://www.w3.org/2000/svg">
<path fill-rule="evenodd" clip-rule="evenodd" d="M2.75 12.3154C2.75 17.1479 6.66751 21.0654 11.5 21.0654C16.3325 21.0654 20.25 17.1479 20.25 12.3154C20.25 7.48294 16.3325 3.56543 11.5 3.56543C6.66751 3.56543 2.75 7.48294 2.75 12.3154ZM11.5 22.5654C5.83908 22.5654 1.25 17.9763 1.25 12.3154C1.25 6.65451 5.83908 2.06543 11.5 2.06543C17.1609 2.06543 21.75 6.65451 21.75 12.3154C21.75 14.8759 20.8111 17.2172 19.2589 19.0136L22.5303 22.2851C22.8232 22.578 22.8232 23.0529 22.5303 23.3458C22.2374 23.6387 21.7626 23.6387 21.4697 23.3458L18.1982 20.0743C16.4017 21.6266 14.0605 22.5654 11.5 22.5654Z" fill="#16151C"/>
</svg>
